<?xml version="1.0" encoding="UTF-8"?>
<svg id="Layer_2" data-name="Layer 2" xmlns="http://www.w3.org/2000/svg" viewBox="0 0 240.08 131.98">
  <defs>
    <style>
      .cls-1 {
        fill: #c7efff;
      }

      .cls-1, .cls-2 {
        stroke-width: 0px;
      }

      .cls-2 {
        fill: #ff9406;
      }
    </style>
  </defs>
  <g id="Layer_1-2" data-name="Layer 1">
    <g>
      <path class="cls-1" d="M153.53,33.38c-3.45,0-6.81.41-10.04,1.15C138.96,14.75,121.27,0,100.13,0c-17.6,0-32.81,10.22-40.03,25.04-5.24-2.27-11.01-3.53-17.08-3.53C19.26,21.51,0,40.77,0,64.53c0,20.59,14.46,37.79,33.78,42.01,7.5,5.74,16.86,9.16,27.04,9.16,5.86,0,11.44-1.14,16.56-3.2,7.64,6.17,17.35,9.87,27.94,9.87,8.89,0,17.16-2.61,24.1-7.1,6.95,4.49,15.22,7.1,24.1,7.1,24.58,0,44.5-19.92,44.5-44.5s-19.92-44.5-44.5-44.5Z"/>
      <path class="cls-2" d="M195.09,45.63c-3.18.29-6.25.95-9.16,1.91-5.85-17.85-23.42-29.96-42.92-28.17-16.23,1.49-29.39,12.2-34.8,26.49-5.02-1.65-10.45-2.33-16.05-1.81-21.91,2.01-38.05,21.41-36.03,43.32,1.74,18.99,16.54,33.63,34.72,35.89,7.4,4.66,16.33,7.02,25.71,6.16,5.4-.5,10.46-2.02,15.01-4.35,7.57,5.04,16.84,7.64,26.6,6.74,8.2-.75,15.6-3.86,21.63-8.59,6.79,3.55,14.64,5.26,22.83,4.51,22.67-2.08,39.36-22.14,37.28-44.81-2.08-22.67-22.14-39.36-44.81-37.28Z"/>
    </g>
  </g>
</svg>