<?xml version="1.0" encoding="UTF-8"?>
<svg id="Layer_2" data-name="Layer 2" xmlns="http://www.w3.org/2000/svg" viewBox="0 0 198.03 160.41">
  <defs>
    <style>
      .cls-1 {
        fill: #c7efff;
        stroke-width: 0px;
      }
    </style>
  </defs>
  <g id="Layer_1-2" data-name="Layer 1">
    <g>
      <g>
        <circle class="cls-1" cx="43.02" cy="64.53" r="43.02"/>
        <circle class="cls-1" cx="100.13" cy="44.5" r="44.5"/>
        <circle class="cls-1" cx="153.53" cy="77.88" r="44.5"/>
        <circle class="cls-1" cx="105.32" cy="77.88" r="44.5"/>
        <circle class="cls-1" cx="60.82" cy="71.2" r="44.5"/>
      </g>
      <path class="cls-1" d="M40.79,125.36s-11.87,25.61,0,25.41c11.87-.2,0-25.41,0-25.41Z"/>
      <path class="cls-1" d="M70.46,135s-11.87,25.61,0,25.41c11.87-.2,0-25.41,0-25.41Z"/>
      <path class="cls-1" d="M97.16,125.36s-11.87,25.61,0,25.41c11.87-.2,0-25.41,0-25.41Z"/>
      <path class="cls-1" d="M130.54,122.39s-11.87,25.61,0,25.41,0-25.41,0-25.41Z"/>
    </g>
  </g>
</svg>